{
	"asset":{
		"generator":"Khronos glTF Blender I/O v5.0.21",
		"version":"2.0"
	},
	"scene":0,
	"scenes":[
		{
			"name":"Happy_eyes",
			"nodes":[
				2
			]
		}
	],
	"nodes":[
		{
			"mesh":0,
			"name":"Happy_eye",
			"rotation":[
				0,
				0,
				-0.015821773558855057,
				0.9998748302459717
			],
			"translation":[
				0.11441612243652344,
				0.08529450744390488,
				-0.06165353208780289
			]
		},
		{
			"mesh":1,
			"name":"Happy_eye_inside",
			"rotation":[
				0,
				0,
				-0.015821773558855057,
				0.9998748302459717
			],
			"translation":[
				0.11441612243652344,
				0.08529450744390488,
				-0.06165353208780289
			]
		},
		{
			"children":[
				0,
				1
			],
			"name":"Happy_eyes"
		}
	],
	"meshes":[
		{
			"name":"Happy_eye_obj",
			"primitives":[
				{
					"attributes":{
						"POSITION":0,
						"NORMAL":1,
						"TEXCOORD_0":2
					},
					"indices":3
				}
			]
		},
		{
			"name":"Happy_eye_inside_obj",
			"primitives":[
				{
					"attributes":{
						"POSITION":4,
						"NORMAL":5,
						"TEXCOORD_0":6
					},
					"indices":7
				}
			]
		}
	],
	"accessors":[
		{
			"bufferView":0,
			"componentType":5126,
			"count":406,
			"max":[
				0.09586109966039658,
				0.03416435793042183,
				0.040125712752342224
			],
			"min":[
				-0.3235955834388733,
				-0.05324605107307434,
				-0.060201309621334076
			],
			"type":"VEC3"
		},
		{
			"bufferView":1,
			"componentType":5126,
			"count":406,
			"type":"VEC3"
		},
		{
			"bufferView":2,
			"componentType":5126,
			"count":406,
			"type":"VEC2"
		},
		{
			"bufferView":3,
			"componentType":5123,
			"count":2016,
			"type":"SCALAR"
		},
		{
			"bufferView":4,
			"componentType":5126,
			"count":56,
			"max":[
				0.08716026693582535,
				0.029285920783877373,
				0.03128036856651306
			],
			"min":[
				-0.31492865085601807,
				-0.02497902885079384,
				-0.05031751096248627
			],
			"type":"VEC3"
		},
		{
			"bufferView":5,
			"componentType":5126,
			"count":56,
			"type":"VEC3"
		},
		{
			"bufferView":6,
			"componentType":5126,
			"count":56,
			"type":"VEC2"
		},
		{
			"bufferView":7,
			"componentType":5123,
			"count":156,
			"type":"SCALAR"
		}
	],
	"bufferViews":[
		{
			"buffer":0,
			"byteLength":4872,
			"byteOffset":0,
			"target":34962
		},
		{
			"buffer":0,
			"byteLength":4872,
			"byteOffset":4872,
			"target":34962
		},
		{
			"buffer":0,
			"byteLength":3248,
			"byteOffset":9744,
			"target":34962
		},
		{
			"buffer":0,
			"byteLength":4032,
			"byteOffset":12992,
			"target":34963
		},
		{
			"buffer":0,
			"byteLength":672,
			"byteOffset":17024,
			"target":34962
		},
		{
			"buffer":0,
			"byteLength":672,
			"byteOffset":17696,
			"target":34962
		},
		{
			"buffer":0,
			"byteLength":448,
			"byteOffset":18368,
			"target":34962
		},
		{
			"buffer":0,
			"byteLength":312,
			"byteOffset":18816,
			"target":34963
		}
	],
	"buffers":[
		{
			"byteLength":19128,
			"uri":"Happy_eyes.bin"
		}
	]
}
