{
	"asset":{
		"generator":"Khronos glTF Blender I/O v5.0.21",
		"version":"2.0"
	},
	"scene":0,
	"scenes":[
		{
			"name":"Strawberry_Hat",
			"nodes":[
				8
			]
		}
	],
	"nodes":[
		{
			"mesh":0,
			"name":"Cylinder",
			"translation":[
				0.007417039945721626,
				0.02208976075053215,
				-0.28516125679016113
			]
		},
		{
			"mesh":1,
			"name":"Plane",
			"rotation":[
				0.08257309347391129,
				0.5392147898674011,
				-0.28857067227363586,
				0.7868647575378418
			],
			"translation":[
				0,
				0.0874841958284378,
				-0.16397303342819214
			]
		},
		{
			"mesh":2,
			"name":"Plane.001",
			"rotation":[
				0.05291074886918068,
				0.7116314768791199,
				-0.5198301672935486,
				0.4696357250213623
			],
			"translation":[
				0.10777503252029419,
				0.07070226967334747,
				-0.1893993318080902
			]
		},
		{
			"mesh":3,
			"name":"Plane.002",
			"rotation":[
				0.05243325233459473,
				0.34708741307258606,
				-0.08319507539272308,
				0.9326627850532532
			],
			"translation":[
				-0.05727890878915787,
				0.08045897632837296,
				-0.16380342841148376
			]
		},
		{
			"mesh":4,
			"name":"Plane.003",
			"rotation":[
				-0.09432617574930191,
				0.2772977352142334,
				-0.029198700562119484,
				0.9556965827941895
			],
			"translation":[
				-0.08848161995410919,
				0.07259257137775421,
				-0.19789502024650574
			]
		},
		{
			"mesh":5,
			"name":"Plane.004",
			"rotation":[
				0.05084022507071495,
				0.7130174040794373,
				-0.26936522126197815,
				0.6453402042388916
			],
			"translation":[
				0.05847553163766861,
				0.07805271446704865,
				-0.16257503628730774
			]
		},
		{
			"mesh":6,
			"name":"Plane.005",
			"translation":[
				-0.1082996129989624,
				0.060762807726860046,
				-0.2462194263935089
			]
		},
		{
			"mesh":7,
			"name":"Plane.006",
			"rotation":[
				0.002834874903783202,
				0.7689392566680908,
				-0.5348304510116577,
				0.3502584397792816
			],
			"translation":[
				0.12384739518165588,
				0.06178908050060272,
				-0.2290080189704895
			]
		},
		{
			"children":[
				0,
				1,
				2,
				3,
				4,
				5,
				6,
				7
			],
			"name":"Strawberry_Hat"
		}
	],
	"meshes":[
		{
			"name":"Cylinder",
			"primitives":[
				{
					"attributes":{
						"POSITION":0,
						"NORMAL":1,
						"TEXCOORD_0":2
					},
					"indices":3
				}
			]
		},
		{
			"name":"Plane.001",
			"primitives":[
				{
					"attributes":{
						"POSITION":4,
						"NORMAL":5,
						"TEXCOORD_0":6
					},
					"indices":7
				}
			]
		},
		{
			"name":"Plane.001",
			"primitives":[
				{
					"attributes":{
						"POSITION":8,
						"NORMAL":9,
						"TEXCOORD_0":10
					},
					"indices":7
				}
			]
		},
		{
			"name":"Plane.001",
			"primitives":[
				{
					"attributes":{
						"POSITION":11,
						"NORMAL":12,
						"TEXCOORD_0":13
					},
					"indices":7
				}
			]
		},
		{
			"name":"Plane.001",
			"primitives":[
				{
					"attributes":{
						"POSITION":14,
						"NORMAL":15,
						"TEXCOORD_0":16
					},
					"indices":7
				}
			]
		},
		{
			"name":"Plane.001",
			"primitives":[
				{
					"attributes":{
						"POSITION":17,
						"NORMAL":18,
						"TEXCOORD_0":19
					},
					"indices":7
				}
			]
		},
		{
			"name":"Plane.001",
			"primitives":[
				{
					"attributes":{
						"POSITION":20,
						"NORMAL":21,
						"TEXCOORD_0":22
					},
					"indices":7
				}
			]
		},
		{
			"name":"Plane.001",
			"primitives":[
				{
					"attributes":{
						"POSITION":23,
						"NORMAL":24,
						"TEXCOORD_0":25
					},
					"indices":7
				}
			]
		}
	],
	"accessors":[
		{
			"bufferView":0,
			"componentType":5126,
			"count":34,
			"max":[
				0.026000022888183594,
				0.026000024750828743,
				0.05132192000746727
			],
			"min":[
				-0.026000022888183594,
				-0.026000024750828743,
				-0.05132192000746727
			],
			"type":"VEC3"
		},
		{
			"bufferView":1,
			"componentType":5126,
			"count":34,
			"type":"VEC3"
		},
		{
			"bufferView":2,
			"componentType":5126,
			"count":34,
			"type":"VEC2"
		},
		{
			"bufferView":3,
			"componentType":5123,
			"count":84,
			"type":"SCALAR"
		},
		{
			"bufferView":4,
			"componentType":5126,
			"count":16,
			"max":[
				0.09699351340532303,
				0.03805491328239441,
				0.02234082669019699
			],
			"min":[
				-0.09496226906776428,
				-0.04123488441109657,
				-0.03554840013384819
			],
			"type":"VEC3"
		},
		{
			"bufferView":5,
			"componentType":5126,
			"count":16,
			"type":"VEC3"
		},
		{
			"bufferView":6,
			"componentType":5126,
			"count":16,
			"type":"VEC2"
		},
		{
			"bufferView":7,
			"componentType":5123,
			"count":84,
			"type":"SCALAR"
		},
		{
			"bufferView":8,
			"componentType":5126,
			"count":16,
			"max":[
				0.09699351340532303,
				0.03805491328239441,
				0.02234082669019699
			],
			"min":[
				-0.09496226906776428,
				-0.04123488441109657,
				-0.03554840013384819
			],
			"type":"VEC3"
		},
		{
			"bufferView":9,
			"componentType":5126,
			"count":16,
			"type":"VEC3"
		},
		{
			"bufferView":10,
			"componentType":5126,
			"count":16,
			"type":"VEC2"
		},
		{
			"bufferView":11,
			"componentType":5126,
			"count":16,
			"max":[
				0.09699351340532303,
				0.03805491328239441,
				0.02234082669019699
			],
			"min":[
				-0.09496226906776428,
				-0.04123488441109657,
				-0.03554840013384819
			],
			"type":"VEC3"
		},
		{
			"bufferView":12,
			"componentType":5126,
			"count":16,
			"type":"VEC3"
		},
		{
			"bufferView":13,
			"componentType":5126,
			"count":16,
			"type":"VEC2"
		},
		{
			"bufferView":14,
			"componentType":5126,
			"count":16,
			"max":[
				0.09699351340532303,
				0.03805491328239441,
				0.02234082669019699
			],
			"min":[
				-0.09496226906776428,
				-0.04123488441109657,
				-0.03554840013384819
			],
			"type":"VEC3"
		},
		{
			"bufferView":15,
			"componentType":5126,
			"count":16,
			"type":"VEC3"
		},
		{
			"bufferView":16,
			"componentType":5126,
			"count":16,
			"type":"VEC2"
		},
		{
			"bufferView":17,
			"componentType":5126,
			"count":16,
			"max":[
				0.09699351340532303,
				0.03805491328239441,
				0.02234082669019699
			],
			"min":[
				-0.09496226906776428,
				-0.04123488441109657,
				-0.03554840013384819
			],
			"type":"VEC3"
		},
		{
			"bufferView":18,
			"componentType":5126,
			"count":16,
			"type":"VEC3"
		},
		{
			"bufferView":19,
			"componentType":5126,
			"count":16,
			"type":"VEC2"
		},
		{
			"bufferView":20,
			"componentType":5126,
			"count":16,
			"max":[
				0.09699351340532303,
				0.03805491328239441,
				0.02234082669019699
			],
			"min":[
				-0.09496226906776428,
				-0.04123488441109657,
				-0.03554840013384819
			],
			"type":"VEC3"
		},
		{
			"bufferView":21,
			"componentType":5126,
			"count":16,
			"type":"VEC3"
		},
		{
			"bufferView":22,
			"componentType":5126,
			"count":16,
			"type":"VEC2"
		},
		{
			"bufferView":23,
			"componentType":5126,
			"count":16,
			"max":[
				0.09699351340532303,
				0.03805491328239441,
				0.02234082669019699
			],
			"min":[
				-0.09496226906776428,
				-0.04123488441109657,
				-0.03554840013384819
			],
			"type":"VEC3"
		},
		{
			"bufferView":24,
			"componentType":5126,
			"count":16,
			"type":"VEC3"
		},
		{
			"bufferView":25,
			"componentType":5126,
			"count":16,
			"type":"VEC2"
		}
	],
	"bufferViews":[
		{
			"buffer":0,
			"byteLength":408,
			"byteOffset":0,
			"target":34962
		},
		{
			"buffer":0,
			"byteLength":408,
			"byteOffset":408,
			"target":34962
		},
		{
			"buffer":0,
			"byteLength":272,
			"byteOffset":816,
			"target":34962
		},
		{
			"buffer":0,
			"byteLength":168,
			"byteOffset":1088,
			"target":34963
		},
		{
			"buffer":0,
			"byteLength":192,
			"byteOffset":1256,
			"target":34962
		},
		{
			"buffer":0,
			"byteLength":192,
			"byteOffset":1448,
			"target":34962
		},
		{
			"buffer":0,
			"byteLength":128,
			"byteOffset":1640,
			"target":34962
		},
		{
			"buffer":0,
			"byteLength":168,
			"byteOffset":1768,
			"target":34963
		},
		{
			"buffer":0,
			"byteLength":192,
			"byteOffset":1936,
			"target":34962
		},
		{
			"buffer":0,
			"byteLength":192,
			"byteOffset":2128,
			"target":34962
		},
		{
			"buffer":0,
			"byteLength":128,
			"byteOffset":2320,
			"target":34962
		},
		{
			"buffer":0,
			"byteLength":192,
			"byteOffset":2448,
			"target":34962
		},
		{
			"buffer":0,
			"byteLength":192,
			"byteOffset":2640,
			"target":34962
		},
		{
			"buffer":0,
			"byteLength":128,
			"byteOffset":2832,
			"target":34962
		},
		{
			"buffer":0,
			"byteLength":192,
			"byteOffset":2960,
			"target":34962
		},
		{
			"buffer":0,
			"byteLength":192,
			"byteOffset":3152,
			"target":34962
		},
		{
			"buffer":0,
			"byteLength":128,
			"byteOffset":3344,
			"target":34962
		},
		{
			"buffer":0,
			"byteLength":192,
			"byteOffset":3472,
			"target":34962
		},
		{
			"buffer":0,
			"byteLength":192,
			"byteOffset":3664,
			"target":34962
		},
		{
			"buffer":0,
			"byteLength":128,
			"byteOffset":3856,
			"target":34962
		},
		{
			"buffer":0,
			"byteLength":192,
			"byteOffset":3984,
			"target":34962
		},
		{
			"buffer":0,
			"byteLength":192,
			"byteOffset":4176,
			"target":34962
		},
		{
			"buffer":0,
			"byteLength":128,
			"byteOffset":4368,
			"target":34962
		},
		{
			"buffer":0,
			"byteLength":192,
			"byteOffset":4496,
			"target":34962
		},
		{
			"buffer":0,
			"byteLength":192,
			"byteOffset":4688,
			"target":34962
		},
		{
			"buffer":0,
			"byteLength":128,
			"byteOffset":4880,
			"target":34962
		}
	],
	"buffers":[
		{
			"byteLength":5008,
			"uri":"Strawberry_hat.bin"
		}
	]
}
