{
	"asset":{
		"generator":"Khronos glTF Blender I/O v5.0.21",
		"version":"2.0"
	},
	"scene":0,
	"scenes":[
		{
			"name":"Cheese",
			"nodes":[
				0
			]
		}
	],
	"nodes":[
		{
			"mesh":0,
			"name":"cheese",
			"rotation":[
				-0.5206204056739807,
				0.5206204056739807,
				-0.47849181294441223,
				0.4784918427467346
			],
			"scale":[
				0.5832497477531433,
				0.9822074770927429,
				1.4690840244293213
			],
			"translation":[
				0.019404975697398186,
				0,
				-0.3097377419471741
			]
		}
	],
	"meshes":[
		{
			"name":"Cylinder.002",
			"primitives":[
				{
					"attributes":{
						"POSITION":0,
						"NORMAL":1,
						"TEXCOORD_0":2
					},
					"indices":3
				}
			]
		}
	],
	"accessors":[
		{
			"bufferView":0,
			"componentType":5126,
			"count":286,
			"max":[
				0.08660253882408142,
				0.05000000074505806,
				0.05000000074505806
			],
			"min":[
				-0.08660253882408142,
				-0.05000000074505806,
				-0.10000000149011612
			],
			"type":"VEC3"
		},
		{
			"bufferView":1,
			"componentType":5126,
			"count":286,
			"type":"VEC3"
		},
		{
			"bufferView":2,
			"componentType":5126,
			"count":286,
			"type":"VEC2"
		},
		{
			"bufferView":3,
			"componentType":5123,
			"count":624,
			"type":"SCALAR"
		}
	],
	"bufferViews":[
		{
			"buffer":0,
			"byteLength":3432,
			"byteOffset":0,
			"target":34962
		},
		{
			"buffer":0,
			"byteLength":3432,
			"byteOffset":3432,
			"target":34962
		},
		{
			"buffer":0,
			"byteLength":2288,
			"byteOffset":6864,
			"target":34962
		},
		{
			"buffer":0,
			"byteLength":1248,
			"byteOffset":9152,
			"target":34963
		}
	],
	"buffers":[
		{
			"byteLength":10400,
			"uri":"Cheese.bin"
		}
	]
}
