{
	"asset":{
		"generator":"Khronos glTF Blender I/O v5.0.21",
		"version":"2.0"
	},
	"scene":0,
	"scenes":[
		{
			"name":"Sad_Eyes",
			"nodes":[
				3
			]
		}
	],
	"nodes":[
		{
			"mesh":0,
			"name":"Sad_Eyes",
			"rotation":[
				0,
				-0.07989851385354996,
				0,
				0.9968031048774719
			],
			"translation":[
				0.09124933928251266,
				0.09387790411710739,
				-0.0775294229388237
			]
		},
		{
			"mesh":1,
			"name":"Sad_Eyes_inside",
			"rotation":[
				0,
				-0.07989851385354996,
				0,
				0.9968031048774719
			],
			"translation":[
				0.09124933928251266,
				0.09387790411710739,
				-0.0775294229388237
			]
		},
		{
			"mesh":2,
			"name":"Tear",
			"rotation":[
				0.7071068286895752,
				0,
				0,
				0.7071068286895752
			],
			"translation":[
				0.07964876294136047,
				0.08939880132675171,
				0
			]
		},
		{
			"children":[
				0,
				1,
				2
			],
			"name":"Sad Eyes"
		}
	],
	"meshes":[
		{
			"name":"Sad_eyes_obj",
			"primitives":[
				{
					"attributes":{
						"POSITION":0,
						"NORMAL":1,
						"TEXCOORD_0":2
					},
					"indices":3
				}
			]
		},
		{
			"name":"Sad_eyes_insode_obj",
			"primitives":[
				{
					"attributes":{
						"POSITION":4,
						"NORMAL":5,
						"TEXCOORD_0":6
					},
					"indices":7
				}
			]
		},
		{
			"name":"Tear_obj",
			"primitives":[
				{
					"attributes":{
						"POSITION":8,
						"NORMAL":9,
						"TEXCOORD_0":10
					},
					"indices":11
				}
			]
		}
	],
	"accessors":[
		{
			"bufferView":0,
			"componentType":5126,
			"count":528,
			"max":[
				0.10635284334421158,
				0.0238359272480011,
				0.07521872222423553
			],
			"min":[
				-0.2808699607849121,
				-0.049001164734363556,
				-0.027107998728752136
			],
			"type":"VEC3"
		},
		{
			"bufferView":1,
			"componentType":5126,
			"count":528,
			"type":"VEC3"
		},
		{
			"bufferView":2,
			"componentType":5126,
			"count":528,
			"type":"VEC2"
		},
		{
			"bufferView":3,
			"componentType":5123,
			"count":2688,
			"type":"SCALAR"
		},
		{
			"bufferView":4,
			"componentType":5126,
			"count":52,
			"max":[
				0.0959775373339653,
				0.018899992108345032,
				0.0652509555220604
			],
			"min":[
				-0.27036383748054504,
				-0.01438523642718792,
				-0.0157167911529541
			],
			"type":"VEC3"
		},
		{
			"bufferView":5,
			"componentType":5126,
			"count":52,
			"type":"VEC3"
		},
		{
			"bufferView":6,
			"componentType":5126,
			"count":52,
			"type":"VEC2"
		},
		{
			"bufferView":7,
			"componentType":5123,
			"count":144,
			"type":"SCALAR"
		},
		{
			"bufferView":8,
			"componentType":5126,
			"count":40,
			"max":[
				0.020644862204790115,
				0.036717116832733154,
				0.018472934141755104
			],
			"min":[
				-0.02064487151801586,
				-0.03223467990756035,
				-0.013782242313027382
			],
			"type":"VEC3"
		},
		{
			"bufferView":9,
			"componentType":5126,
			"count":40,
			"type":"VEC3"
		},
		{
			"bufferView":10,
			"componentType":5126,
			"count":40,
			"type":"VEC2"
		},
		{
			"bufferView":11,
			"componentType":5123,
			"count":162,
			"type":"SCALAR"
		}
	],
	"bufferViews":[
		{
			"buffer":0,
			"byteLength":6336,
			"byteOffset":0,
			"target":34962
		},
		{
			"buffer":0,
			"byteLength":6336,
			"byteOffset":6336,
			"target":34962
		},
		{
			"buffer":0,
			"byteLength":4224,
			"byteOffset":12672,
			"target":34962
		},
		{
			"buffer":0,
			"byteLength":5376,
			"byteOffset":16896,
			"target":34963
		},
		{
			"buffer":0,
			"byteLength":624,
			"byteOffset":22272,
			"target":34962
		},
		{
			"buffer":0,
			"byteLength":624,
			"byteOffset":22896,
			"target":34962
		},
		{
			"buffer":0,
			"byteLength":416,
			"byteOffset":23520,
			"target":34962
		},
		{
			"buffer":0,
			"byteLength":288,
			"byteOffset":23936,
			"target":34963
		},
		{
			"buffer":0,
			"byteLength":480,
			"byteOffset":24224,
			"target":34962
		},
		{
			"buffer":0,
			"byteLength":480,
			"byteOffset":24704,
			"target":34962
		},
		{
			"buffer":0,
			"byteLength":320,
			"byteOffset":25184,
			"target":34962
		},
		{
			"buffer":0,
			"byteLength":324,
			"byteOffset":25504,
			"target":34963
		}
	],
	"buffers":[
		{
			"byteLength":25828,
			"uri":"Sad_eyes.bin"
		}
	]
}
