{
	"asset":{
		"generator":"Khronos glTF Blender I/O v5.0.21",
		"version":"2.0"
	},
	"scene":0,
	"scenes":[
		{
			"name":"Angry_Mouth",
			"nodes":[
				2
			]
		}
	],
	"nodes":[
		{
			"mesh":0,
			"name":"Angry_Mouth",
			"translation":[
				0,
				0.003114171791821718,
				0
			]
		},
		{
			"mesh":1,
			"name":"Angry_Mouth_Inside",
			"translation":[
				0,
				0.003114171791821718,
				0
			]
		},
		{
			"children":[
				0,
				1
			],
			"name":"Mouth_Angry"
		}
	],
	"meshes":[
		{
			"name":"Angry_Mouth_obj",
			"primitives":[
				{
					"attributes":{
						"POSITION":0,
						"NORMAL":1,
						"TEXCOORD_0":2
					},
					"indices":3
				}
			]
		},
		{
			"name":"Angry_Mouth_Inside_obj",
			"primitives":[
				{
					"attributes":{
						"POSITION":4,
						"NORMAL":5,
						"TEXCOORD_0":6
					},
					"indices":7
				}
			]
		}
	],
	"accessors":[
		{
			"bufferView":0,
			"componentType":5126,
			"count":119,
			"max":[
				0.09357254952192307,
				0.06554482877254486,
				0.20287364721298218
			],
			"min":[
				-0.08061249554157257,
				-0.0063184285536408424,
				0.1427401900291443
			],
			"type":"VEC3"
		},
		{
			"bufferView":1,
			"componentType":5126,
			"count":119,
			"type":"VEC3"
		},
		{
			"bufferView":2,
			"componentType":5126,
			"count":119,
			"type":"VEC2"
		},
		{
			"bufferView":3,
			"componentType":5123,
			"count":576,
			"type":"SCALAR"
		},
		{
			"bufferView":4,
			"componentType":5126,
			"count":40,
			"max":[
				0.08472662419080734,
				0.06010042130947113,
				0.19099608063697815
			],
			"min":[
				-0.07228387892246246,
				0.043524663895368576,
				0.1546766757965088
			],
			"type":"VEC3"
		},
		{
			"bufferView":5,
			"componentType":5126,
			"count":40,
			"type":"VEC3"
		},
		{
			"bufferView":6,
			"componentType":5126,
			"count":40,
			"type":"VEC2"
		},
		{
			"bufferView":7,
			"componentType":5123,
			"count":42,
			"type":"SCALAR"
		}
	],
	"bufferViews":[
		{
			"buffer":0,
			"byteLength":1428,
			"byteOffset":0,
			"target":34962
		},
		{
			"buffer":0,
			"byteLength":1428,
			"byteOffset":1428,
			"target":34962
		},
		{
			"buffer":0,
			"byteLength":952,
			"byteOffset":2856,
			"target":34962
		},
		{
			"buffer":0,
			"byteLength":1152,
			"byteOffset":3808,
			"target":34963
		},
		{
			"buffer":0,
			"byteLength":480,
			"byteOffset":4960,
			"target":34962
		},
		{
			"buffer":0,
			"byteLength":480,
			"byteOffset":5440,
			"target":34962
		},
		{
			"buffer":0,
			"byteLength":320,
			"byteOffset":5920,
			"target":34962
		},
		{
			"buffer":0,
			"byteLength":84,
			"byteOffset":6240,
			"target":34963
		}
	],
	"buffers":[
		{
			"byteLength":6324,
			"uri":"Angry_Mouth.bin"
		}
	]
}
