{
	"asset":{
		"generator":"Khronos glTF Blender I/O v5.0.21",
		"version":"2.0"
	},
	"scene":0,
	"scenes":[
		{
			"name":"Mouth_Happy",
			"nodes":[
				2
			]
		}
	],
	"nodes":[
		{
			"mesh":0,
			"name":"Moth_Happy",
			"translation":[
				0,
				-0.0028476594015955925,
				0
			]
		},
		{
			"mesh":1,
			"name":"Moth_Happy_inside",
			"translation":[
				0,
				-0.0028476594015955925,
				0
			]
		},
		{
			"children":[
				0,
				1
			],
			"name":"Happy_Mouth"
		}
	],
	"meshes":[
		{
			"name":"Moth_Happy_obj",
			"primitives":[
				{
					"attributes":{
						"POSITION":0,
						"NORMAL":1,
						"TEXCOORD_0":2
					},
					"indices":3
				}
			]
		},
		{
			"name":"Moth_Happy_inside_obj",
			"primitives":[
				{
					"attributes":{
						"POSITION":4,
						"NORMAL":5,
						"TEXCOORD_0":6
					},
					"indices":7
				}
			]
		}
	],
	"accessors":[
		{
			"bufferView":0,
			"componentType":5126,
			"count":203,
			"max":[
				0.11276160925626755,
				0.07574616372585297,
				0.23841266334056854
			],
			"min":[
				-0.11286211758852005,
				0.005200687795877457,
				0.10577953606843948
			],
			"type":"VEC3"
		},
		{
			"bufferView":1,
			"componentType":5126,
			"count":203,
			"type":"VEC3"
		},
		{
			"bufferView":2,
			"componentType":5126,
			"count":203,
			"type":"VEC2"
		},
		{
			"bufferView":3,
			"componentType":5123,
			"count":1008,
			"type":"SCALAR"
		},
		{
			"bufferView":4,
			"componentType":5126,
			"count":28,
			"max":[
				0.1014561653137207,
				0.06668718159198761,
				0.22440244257450104
			],
			"min":[
				-0.10153558105230331,
				0.03748162463307381,
				0.1211075708270073
			],
			"type":"VEC3"
		},
		{
			"bufferView":5,
			"componentType":5126,
			"count":28,
			"type":"VEC3"
		},
		{
			"bufferView":6,
			"componentType":5126,
			"count":28,
			"type":"VEC2"
		},
		{
			"bufferView":7,
			"componentType":5123,
			"count":78,
			"type":"SCALAR"
		}
	],
	"bufferViews":[
		{
			"buffer":0,
			"byteLength":2436,
			"byteOffset":0,
			"target":34962
		},
		{
			"buffer":0,
			"byteLength":2436,
			"byteOffset":2436,
			"target":34962
		},
		{
			"buffer":0,
			"byteLength":1624,
			"byteOffset":4872,
			"target":34962
		},
		{
			"buffer":0,
			"byteLength":2016,
			"byteOffset":6496,
			"target":34963
		},
		{
			"buffer":0,
			"byteLength":336,
			"byteOffset":8512,
			"target":34962
		},
		{
			"buffer":0,
			"byteLength":336,
			"byteOffset":8848,
			"target":34962
		},
		{
			"buffer":0,
			"byteLength":224,
			"byteOffset":9184,
			"target":34962
		},
		{
			"buffer":0,
			"byteLength":156,
			"byteOffset":9408,
			"target":34963
		}
	],
	"buffers":[
		{
			"byteLength":9564,
			"uri":"Happy_Mouth.bin"
		}
	]
}
