{
	"asset":{
		"generator":"Khronos glTF Blender I/O v5.0.21",
		"version":"2.0"
	},
	"scene":0,
	"scenes":[
		{
			"name":"Cat_ears",
			"nodes":[
				0
			]
		}
	],
	"nodes":[
		{
			"mesh":0,
			"name":"Cat_ears",
			"rotation":[
				0,
				-0.28402701020240784,
				0,
				0.9588162899017334
			],
			"scale":[
				0.09037571400403976,
				0.06471111625432968,
				0.09037571400403976
			],
			"translation":[
				0.17243678867816925,
				-0.007585301995277405,
				-0.24922342598438263
			]
		}
	],
	"meshes":[
		{
			"name":"Cat_ears_obj",
			"primitives":[
				{
					"attributes":{
						"POSITION":0,
						"NORMAL":1,
						"TEXCOORD_0":2
					},
					"indices":3
				}
			]
		}
	],
	"accessors":[
		{
			"bufferView":0,
			"componentType":5126,
			"count":148,
			"max":[
				1,
				0.6235780715942383,
				3.398677110671997
			],
			"min":[
				-4.861937522888184,
				-7.450580596923828e-09,
				-1.8188331127166748
			],
			"type":"VEC3"
		},
		{
			"bufferView":1,
			"componentType":5126,
			"count":148,
			"type":"VEC3"
		},
		{
			"bufferView":2,
			"componentType":5126,
			"count":148,
			"type":"VEC2"
		},
		{
			"bufferView":3,
			"componentType":5123,
			"count":864,
			"type":"SCALAR"
		}
	],
	"bufferViews":[
		{
			"buffer":0,
			"byteLength":1776,
			"byteOffset":0,
			"target":34962
		},
		{
			"buffer":0,
			"byteLength":1776,
			"byteOffset":1776,
			"target":34962
		},
		{
			"buffer":0,
			"byteLength":1184,
			"byteOffset":3552,
			"target":34962
		},
		{
			"buffer":0,
			"byteLength":1728,
			"byteOffset":4736,
			"target":34963
		}
	],
	"buffers":[
		{
			"byteLength":6464,
			"uri":"Cat_ears.bin"
		}
	]
}
