{
	"asset":{
		"generator":"Khronos glTF Blender I/O v5.0.21",
		"version":"2.0"
	},
	"scene":0,
	"scenes":[
		{
			"name":"Cute_Mouth",
			"nodes":[
				2
			]
		}
	],
	"nodes":[
		{
			"mesh":0,
			"name":"Mouth_Cute",
			"scale":[
				0.10462191700935364,
				0.10462191700935364,
				0.10462191700935364
			],
			"translation":[
				-0.09287184476852417,
				0.06803996115922928,
				0.1584896594285965
			]
		},
		{
			"mesh":1,
			"name":"Mouth_cute_teeth",
			"scale":[
				0.10462191700935364,
				0.10462191700935364,
				0.10462191700935364
			],
			"translation":[
				-0.09287184476852417,
				0.06803996115922928,
				0.1584896594285965
			]
		},
		{
			"children":[
				0,
				1
			],
			"name":"Cute_Mouth"
		}
	],
	"meshes":[
		{
			"name":"Mouth_Cute_obj",
			"primitives":[
				{
					"attributes":{
						"POSITION":0,
						"NORMAL":1,
						"TEXCOORD_0":2
					},
					"indices":3
				}
			]
		},
		{
			"name":"Mouth_Cute_teeth_obj",
			"primitives":[
				{
					"attributes":{
						"POSITION":4,
						"NORMAL":5,
						"TEXCOORD_0":6
					},
					"indices":7
				}
			]
		}
	],
	"accessors":[
		{
			"bufferView":0,
			"componentType":5126,
			"count":91,
			"max":[
				1.7079882621765137,
				-0.07593835890293121,
				0.2762874364852905
			],
			"min":[
				0.12229262292385101,
				-0.6212933659553528,
				0.014852121472358704
			],
			"type":"VEC3"
		},
		{
			"bufferView":1,
			"componentType":5126,
			"count":91,
			"type":"VEC3"
		},
		{
			"bufferView":2,
			"componentType":5126,
			"count":91,
			"type":"VEC2"
		},
		{
			"bufferView":3,
			"componentType":5123,
			"count":462,
			"type":"SCALAR"
		},
		{
			"bufferView":4,
			"componentType":5126,
			"count":22,
			"max":[
				1.4925893545150757,
				-0.15406444668769836,
				0.41805753111839294
			],
			"min":[
				0.3107864260673523,
				-0.5584366917610168,
				0.22774158418178558
			],
			"type":"VEC3"
		},
		{
			"bufferView":5,
			"componentType":5126,
			"count":22,
			"type":"VEC3"
		},
		{
			"bufferView":6,
			"componentType":5126,
			"count":22,
			"type":"VEC2"
		},
		{
			"bufferView":7,
			"componentType":5123,
			"count":36,
			"type":"SCALAR"
		}
	],
	"bufferViews":[
		{
			"buffer":0,
			"byteLength":1092,
			"byteOffset":0,
			"target":34962
		},
		{
			"buffer":0,
			"byteLength":1092,
			"byteOffset":1092,
			"target":34962
		},
		{
			"buffer":0,
			"byteLength":728,
			"byteOffset":2184,
			"target":34962
		},
		{
			"buffer":0,
			"byteLength":924,
			"byteOffset":2912,
			"target":34963
		},
		{
			"buffer":0,
			"byteLength":264,
			"byteOffset":3836,
			"target":34962
		},
		{
			"buffer":0,
			"byteLength":264,
			"byteOffset":4100,
			"target":34962
		},
		{
			"buffer":0,
			"byteLength":176,
			"byteOffset":4364,
			"target":34962
		},
		{
			"buffer":0,
			"byteLength":72,
			"byteOffset":4540,
			"target":34963
		}
	],
	"buffers":[
		{
			"byteLength":4612,
			"uri":"Cute_Mouth.bin"
		}
	]
}
