{
	"asset":{
		"generator":"Khronos glTF Blender I/O v5.0.21",
		"version":"2.0"
	},
	"scene":0,
	"scenes":[
		{
			"name":"Eyes_Cute",
			"nodes":[
				3
			]
		}
	],
	"nodes":[
		{
			"mesh":0,
			"name":"Cute_eye_Hightlight_big",
			"rotation":[
				-0.21067333221435547,
				-0.030747372657060623,
				-0.12734699249267578,
				0.9687384963035583
			],
			"scale":[
				0.016686249524354935,
				0.016686251387000084,
				0.016686251387000084
			],
			"translation":[
				0.14931848645210266,
				0.12175287306308746,
				-0.08590660244226456
			]
		},
		{
			"mesh":1,
			"name":"Cute_eye_Hightlight_smal",
			"rotation":[
				-0.038085464388132095,
				0.00943172536790371,
				-0.09141859412193298,
				0.9950394034385681
			],
			"scale":[
				0.011336561292409897,
				0.011336561292409897,
				0.011336560361087322
			],
			"translation":[
				0.14383342862129211,
				0.1309409886598587,
				-0.05884697288274765
			]
		},
		{
			"mesh":2,
			"name":"Cute_Eyes",
			"scale":[
				0.7034043073654175,
				0.7034043073654175,
				0.7034043073654175
			],
			"translation":[
				0.1208658218383789,
				0.061195094138383865,
				-0.060331810265779495
			]
		},
		{
			"children":[
				0,
				1,
				2
			],
			"name":"Eyes_cute"
		}
	],
	"meshes":[
		{
			"name":"Cute_eye_Hightlight_big_obj",
			"primitives":[
				{
					"attributes":{
						"POSITION":0,
						"NORMAL":1,
						"TEXCOORD_0":2
					},
					"indices":3
				}
			]
		},
		{
			"name":"Cute_eye_Hightlight_smal_obj",
			"primitives":[
				{
					"attributes":{
						"POSITION":4,
						"NORMAL":5,
						"TEXCOORD_0":6
					},
					"indices":3
				}
			]
		},
		{
			"name":"Cute_eyes_obj",
			"primitives":[
				{
					"attributes":{
						"POSITION":7,
						"NORMAL":8,
						"TEXCOORD_0":9
					},
					"indices":10
				}
			]
		}
	],
	"accessors":[
		{
			"bufferView":0,
			"componentType":5126,
			"count":18,
			"max":[
				0.9166667461395264,
				0,
				1.0948898792266846
			],
			"min":[
				-15.429800033569336,
				-3.75712251663208,
				-0.9166667461395264
			],
			"type":"VEC3"
		},
		{
			"bufferView":1,
			"componentType":5126,
			"count":18,
			"type":"VEC3"
		},
		{
			"bufferView":2,
			"componentType":5126,
			"count":18,
			"type":"VEC2"
		},
		{
			"bufferView":3,
			"componentType":5123,
			"count":48,
			"type":"SCALAR"
		},
		{
			"bufferView":4,
			"componentType":5126,
			"count":18,
			"max":[
				0.9166667461395264,
				0,
				0.9166667461395264
			],
			"min":[
				-22.02338218688965,
				-3.9078381061553955,
				-1.4601470232009888
			],
			"type":"VEC3"
		},
		{
			"bufferView":5,
			"componentType":5126,
			"count":18,
			"type":"VEC3"
		},
		{
			"bufferView":6,
			"componentType":5126,
			"count":18,
			"type":"VEC2"
		},
		{
			"bufferView":7,
			"componentType":5126,
			"count":480,
			"max":[
				0.10000002384185791,
				0.10000002384185791,
				0.10000002384185791
			],
			"min":[
				-0.44365960359573364,
				-0.10000002384185791,
				-0.10000002384185791
			],
			"type":"VEC3"
		},
		{
			"bufferView":8,
			"componentType":5126,
			"count":480,
			"type":"VEC3"
		},
		{
			"bufferView":9,
			"componentType":5126,
			"count":480,
			"type":"VEC2"
		},
		{
			"bufferView":10,
			"componentType":5123,
			"count":672,
			"type":"SCALAR"
		}
	],
	"bufferViews":[
		{
			"buffer":0,
			"byteLength":216,
			"byteOffset":0,
			"target":34962
		},
		{
			"buffer":0,
			"byteLength":216,
			"byteOffset":216,
			"target":34962
		},
		{
			"buffer":0,
			"byteLength":144,
			"byteOffset":432,
			"target":34962
		},
		{
			"buffer":0,
			"byteLength":96,
			"byteOffset":576,
			"target":34963
		},
		{
			"buffer":0,
			"byteLength":216,
			"byteOffset":672,
			"target":34962
		},
		{
			"buffer":0,
			"byteLength":216,
			"byteOffset":888,
			"target":34962
		},
		{
			"buffer":0,
			"byteLength":144,
			"byteOffset":1104,
			"target":34962
		},
		{
			"buffer":0,
			"byteLength":5760,
			"byteOffset":1248,
			"target":34962
		},
		{
			"buffer":0,
			"byteLength":5760,
			"byteOffset":7008,
			"target":34962
		},
		{
			"buffer":0,
			"byteLength":3840,
			"byteOffset":12768,
			"target":34962
		},
		{
			"buffer":0,
			"byteLength":1344,
			"byteOffset":16608,
			"target":34963
		}
	],
	"buffers":[
		{
			"byteLength":17952,
			"uri":"Cute_Eyes.bin"
		}
	]
}
