{
	"asset":{
		"generator":"Khronos glTF Blender I/O v5.0.21",
		"version":"2.0"
	},
	"scene":0,
	"scenes":[
		{
			"name":"Sad_Mouth",
			"nodes":[
				2
			]
		}
	],
	"nodes":[
		{
			"mesh":0,
			"name":"Sad_Mouth",
			"translation":[
				0.0001400342007400468,
				0.05530661344528198,
				0.1628899723291397
			]
		},
		{
			"mesh":1,
			"name":"Sad_Mouth_Inside",
			"translation":[
				0.0001400342007400468,
				0.04934728890657425,
				0.1628899723291397
			]
		},
		{
			"children":[
				0,
				1
			],
			"name":"Sad_Mouth_Full"
		}
	],
	"meshes":[
		{
			"name":"Sad_Mouth_obj",
			"primitives":[
				{
					"attributes":{
						"POSITION":0,
						"NORMAL":1,
						"TEXCOORD_0":2
					},
					"indices":3
				}
			]
		},
		{
			"name":"Sad_Mouth_Inside_obj",
			"primitives":[
				{
					"attributes":{
						"POSITION":4,
						"NORMAL":5,
						"TEXCOORD_0":6
					},
					"indices":7
				}
			]
		}
	],
	"accessors":[
		{
			"bufferView":0,
			"componentType":5126,
			"count":150,
			"max":[
				0.08574839681386948,
				0.023661762475967407,
				0.028666332364082336
			],
			"min":[
				-0.0861019715666771,
				-0.05332187935709953,
				-0.049592554569244385
			],
			"type":"VEC3"
		},
		{
			"bufferView":1,
			"componentType":5126,
			"count":150,
			"type":"VEC3"
		},
		{
			"bufferView":2,
			"componentType":5126,
			"count":150,
			"type":"VEC2"
		},
		{
			"bufferView":3,
			"componentType":5123,
			"count":720,
			"type":"SCALAR"
		},
		{
			"bufferView":4,
			"componentType":5126,
			"count":24,
			"max":[
				0.08189105987548828,
				0.023243319243192673,
				0.022649258375167847
			],
			"min":[
				-0.08223404735326767,
				-0.010253994725644588,
				-0.04419618099927902
			],
			"type":"VEC3"
		},
		{
			"bufferView":5,
			"componentType":5126,
			"count":24,
			"type":"VEC3"
		},
		{
			"bufferView":6,
			"componentType":5126,
			"count":24,
			"type":"VEC2"
		},
		{
			"bufferView":7,
			"componentType":5123,
			"count":66,
			"type":"SCALAR"
		}
	],
	"bufferViews":[
		{
			"buffer":0,
			"byteLength":1800,
			"byteOffset":0,
			"target":34962
		},
		{
			"buffer":0,
			"byteLength":1800,
			"byteOffset":1800,
			"target":34962
		},
		{
			"buffer":0,
			"byteLength":1200,
			"byteOffset":3600,
			"target":34962
		},
		{
			"buffer":0,
			"byteLength":1440,
			"byteOffset":4800,
			"target":34963
		},
		{
			"buffer":0,
			"byteLength":288,
			"byteOffset":6240,
			"target":34962
		},
		{
			"buffer":0,
			"byteLength":288,
			"byteOffset":6528,
			"target":34962
		},
		{
			"buffer":0,
			"byteLength":192,
			"byteOffset":6816,
			"target":34962
		},
		{
			"buffer":0,
			"byteLength":132,
			"byteOffset":7008,
			"target":34963
		}
	],
	"buffers":[
		{
			"byteLength":7140,
			"uri":"Sad_Mouth.bin"
		}
	]
}
