{
	"asset":{
		"generator":"Khronos glTF Blender I/O v5.0.21",
		"version":"2.0"
	},
	"scene":0,
	"scenes":[
		{
			"name":"Mask_Shape_04",
			"nodes":[
				0
			]
		}
	],
	"nodes":[
		{
			"mesh":0,
			"name":"Mask_Shape_04"
		}
	],
	"meshes":[
		{
			"name":"Mask_Shape_04_obj",
			"primitives":[
				{
					"attributes":{
						"POSITION":0,
						"NORMAL":1,
						"TEXCOORD_0":2
					},
					"indices":3
				}
			]
		}
	],
	"accessors":[
		{
			"bufferView":0,
			"componentType":5126,
			"count":274,
			"max":[
				0.3613773286342621,
				0.11681133508682251,
				0.27303752303123474
			],
			"min":[
				-0.3613773286342621,
				-0.008355079218745232,
				-0.27903929352760315
			],
			"type":"VEC3"
		},
		{
			"bufferView":1,
			"componentType":5126,
			"count":274,
			"type":"VEC3"
		},
		{
			"bufferView":2,
			"componentType":5126,
			"count":274,
			"type":"VEC2"
		},
		{
			"bufferView":3,
			"componentType":5123,
			"count":1188,
			"type":"SCALAR"
		}
	],
	"bufferViews":[
		{
			"buffer":0,
			"byteLength":3288,
			"byteOffset":0,
			"target":34962
		},
		{
			"buffer":0,
			"byteLength":3288,
			"byteOffset":3288,
			"target":34962
		},
		{
			"buffer":0,
			"byteLength":2192,
			"byteOffset":6576,
			"target":34962
		},
		{
			"buffer":0,
			"byteLength":2376,
			"byteOffset":8768,
			"target":34963
		}
	],
	"buffers":[
		{
			"byteLength":11144,
			"uri":"Mask_Shape_04.bin"
		}
	]
}
