{
	"asset":{
		"generator":"Khronos glTF Blender I/O v5.0.21",
		"version":"2.0"
	},
	"scene":0,
	"scenes":[
		{
			"name":"Mask_Shape",
			"nodes":[
				0
			]
		}
	],
	"nodes":[
		{
			"mesh":0,
			"name":"Mask_Shape_01"
		}
	],
	"meshes":[
		{
			"name":"Plane",
			"primitives":[
				{
					"attributes":{
						"POSITION":0,
						"NORMAL":1,
						"TEXCOORD_0":2
					},
					"indices":3
				}
			]
		}
	],
	"accessors":[
		{
			"bufferView":0,
			"componentType":5126,
			"count":268,
			"max":[
				0.2499120682477951,
				0.09960274398326874,
				0.37666046619415283
			],
			"min":[
				-0.2499120682477951,
				-0.009778345003724098,
				-0.27903929352760315
			],
			"type":"VEC3"
		},
		{
			"bufferView":1,
			"componentType":5126,
			"count":268,
			"type":"VEC3"
		},
		{
			"bufferView":2,
			"componentType":5126,
			"count":268,
			"type":"VEC2"
		},
		{
			"bufferView":3,
			"componentType":5123,
			"count":1188,
			"type":"SCALAR"
		}
	],
	"bufferViews":[
		{
			"buffer":0,
			"byteLength":3216,
			"byteOffset":0,
			"target":34962
		},
		{
			"buffer":0,
			"byteLength":3216,
			"byteOffset":3216,
			"target":34962
		},
		{
			"buffer":0,
			"byteLength":2144,
			"byteOffset":6432,
			"target":34962
		},
		{
			"buffer":0,
			"byteLength":2376,
			"byteOffset":8576,
			"target":34963
		}
	],
	"buffers":[
		{
			"byteLength":10952,
			"uri":"Mask_Shape.bin"
		}
	]
}
