{
	"asset":{
		"generator":"Khronos glTF Blender I/O v5.0.21",
		"version":"2.0"
	},
	"scene":0,
	"scenes":[
		{
			"name":"Eyes_Angry",
			"nodes":[
				2
			]
		}
	],
	"nodes":[
		{
			"mesh":0,
			"name":"Eyes_Angry"
		},
		{
			"mesh":1,
			"name":"Eyes_Angry_inside"
		},
		{
			"children":[
				0,
				1
			],
			"name":"Angry_eyes"
		}
	],
	"meshes":[
		{
			"name":"Eyes_Angry_obj",
			"primitives":[
				{
					"attributes":{
						"POSITION":0,
						"NORMAL":1,
						"TEXCOORD_0":2
					},
					"indices":3
				}
			]
		},
		{
			"name":"Eyes_Angry_inside_obj",
			"primitives":[
				{
					"attributes":{
						"POSITION":4,
						"NORMAL":5,
						"TEXCOORD_0":6
					},
					"indices":7
				}
			]
		}
	],
	"accessors":[
		{
			"bufferView":0,
			"componentType":5126,
			"count":592,
			"max":[
				0.1943836808204651,
				0.1252591907978058,
				-0.027997780591249466
			],
			"min":[
				-0.1943836808204651,
				0.04098246991634369,
				-0.13343873620033264
			],
			"type":"VEC3"
		},
		{
			"bufferView":1,
			"componentType":5126,
			"count":592,
			"type":"VEC3"
		},
		{
			"bufferView":2,
			"componentType":5126,
			"count":592,
			"type":"VEC2"
		},
		{
			"bufferView":3,
			"componentType":5123,
			"count":3024,
			"type":"SCALAR"
		},
		{
			"bufferView":4,
			"componentType":5126,
			"count":46,
			"max":[
				0.18875697255134583,
				0.12108071893453598,
				-0.03586786985397339
			],
			"min":[
				-0.18875697255134583,
				0.08168277889490128,
				-0.12587016820907593
			],
			"type":"VEC3"
		},
		{
			"bufferView":5,
			"componentType":5126,
			"count":46,
			"type":"VEC3"
		},
		{
			"bufferView":6,
			"componentType":5126,
			"count":46,
			"type":"VEC2"
		},
		{
			"bufferView":7,
			"componentType":5123,
			"count":126,
			"type":"SCALAR"
		}
	],
	"bufferViews":[
		{
			"buffer":0,
			"byteLength":7104,
			"byteOffset":0,
			"target":34962
		},
		{
			"buffer":0,
			"byteLength":7104,
			"byteOffset":7104,
			"target":34962
		},
		{
			"buffer":0,
			"byteLength":4736,
			"byteOffset":14208,
			"target":34962
		},
		{
			"buffer":0,
			"byteLength":6048,
			"byteOffset":18944,
			"target":34963
		},
		{
			"buffer":0,
			"byteLength":552,
			"byteOffset":24992,
			"target":34962
		},
		{
			"buffer":0,
			"byteLength":552,
			"byteOffset":25544,
			"target":34962
		},
		{
			"buffer":0,
			"byteLength":368,
			"byteOffset":26096,
			"target":34962
		},
		{
			"buffer":0,
			"byteLength":252,
			"byteOffset":26464,
			"target":34963
		}
	],
	"buffers":[
		{
			"byteLength":26716,
			"uri":"Angry_eyes.bin"
		}
	]
}
