{
	"asset":{
		"generator":"Khronos glTF Blender I/O v5.0.21",
		"version":"2.0"
	},
	"scene":0,
	"scenes":[
		{
			"name":"Room",
			"nodes":[
				0,
				1,
				9,
				24,
				27,
				31,
				36
			]
		}
	],
	"nodes":[
		{
			"mesh":0,
			"name":"Room"
		},
		{
			"mesh":1,
			"name":"Counter",
			"translation":[
				1.3297438621520996,
				1.25,
				0
			]
		},
		{
			"mesh":2,
			"name":"Desk_plate",
			"translation":[
				2.037572145462036,
				1.0406150817871094,
				0
			]
		},
		{
			"mesh":3,
			"name":"Desk_Stand_01",
			"translation":[
				1.7204262018203735,
				0,
				-0.8652815818786621
			]
		},
		{
			"mesh":4,
			"name":"Desk_Stand_01.001",
			"translation":[
				1.7204262018203735,
				0,
				0.8241831064224243
			]
		},
		{
			"mesh":5,
			"name":"Desk_Stand_01.002",
			"translation":[
				1.7204262018203735,
				0,
				-0.8652815818786621
			]
		},
		{
			"mesh":6,
			"name":"Desk_Stand_01.003",
			"translation":[
				1.7204262018203735,
				0,
				0.8241831064224243
			]
		},
		{
			"mesh":7,
			"name":"Desk_Stand_01.004",
			"translation":[
				2.429565191268921,
				0,
				-0.8652815818786621
			]
		},
		{
			"mesh":8,
			"name":"Desk_Stand_01.005",
			"translation":[
				2.429565191268921,
				0,
				0.8241831064224243
			]
		},
		{
			"children":[
				2,
				3,
				4,
				5,
				6,
				7,
				8
			],
			"name":"Table"
		},
		{
			"mesh":9,
			"name":"Big_baem",
			"translation":[
				1.278894305229187,
				0,
				-1.2473690509796143
			]
		},
		{
			"mesh":10,
			"name":"Big_baem.001",
			"rotation":[
				0,
				0.7071067094802856,
				0,
				0.7071068286895752
			],
			"translation":[
				1.278894305229187,
				0,
				-1.7486016750335693
			]
		},
		{
			"mesh":11,
			"name":"Big_baem.002",
			"rotation":[
				0,
				-1,
				0,
				1.9470718370939721e-07
			],
			"translation":[
				1.278894305229187,
				0,
				-2.235395908355713
			]
		},
		{
			"mesh":12,
			"name":"Big_baem.003",
			"rotation":[
				0,
				0.7071067094802856,
				0,
				0.7071068286895752
			],
			"translation":[
				1.278894305229187,
				0,
				1.2526121139526367
			]
		},
		{
			"mesh":13,
			"name":"Big_baem.004",
			"rotation":[
				0,
				-1,
				0,
				1.9470718370939721e-07
			],
			"translation":[
				1.278894305229187,
				0,
				1.739452600479126
			]
		},
		{
			"mesh":14,
			"name":"Big_baem.005",
			"rotation":[
				0,
				-0.7071065902709961,
				0,
				0.7071070671081543
			],
			"translation":[
				1.278894305229187,
				0,
				2.238487720489502
			]
		},
		{
			"mesh":15,
			"name":"Smal_beam",
			"translation":[
				1.278894305229187,
				0,
				-0.7293669581413269
			]
		},
		{
			"mesh":16,
			"name":"Smal_beam.001",
			"rotation":[
				0,
				0.7071067094802856,
				0,
				0.7071068286895752
			],
			"translation":[
				1.278894305229187,
				0,
				-0.25965726375579834
			]
		},
		{
			"mesh":17,
			"name":"Smal_beam.002",
			"rotation":[
				0,
				-1,
				0,
				1.9470718370939721e-07
			],
			"translation":[
				1.278894305229187,
				0,
				0.24515271186828613
			]
		},
		{
			"mesh":18,
			"name":"Smal_beam.003",
			"rotation":[
				0,
				-0.7071065902709961,
				0,
				0.7071070671081543
			],
			"translation":[
				1.278894305229187,
				0,
				0.7520893812179565
			]
		},
		{
			"mesh":19,
			"name":"Smal_beam.004",
			"translation":[
				1.278894305229187,
				2.4909112453460693,
				-0.7293669581413269
			]
		},
		{
			"mesh":20,
			"name":"Smal_beam.005",
			"rotation":[
				0,
				0.7071067094802856,
				0,
				0.7071068286895752
			],
			"translation":[
				1.278894305229187,
				2.4909112453460693,
				-0.25965726375579834
			]
		},
		{
			"mesh":21,
			"name":"Smal_beam.006",
			"rotation":[
				0,
				-1,
				0,
				1.9470718370939721e-07
			],
			"translation":[
				1.278894305229187,
				2.4909112453460693,
				0.24515271186828613
			]
		},
		{
			"mesh":22,
			"name":"Smal_beam.007",
			"rotation":[
				0,
				-0.7071065902709961,
				0,
				0.7071070671081543
			],
			"translation":[
				1.278894305229187,
				2.4909112453460693,
				0.7520893812179565
			]
		},
		{
			"children":[
				10,
				11,
				12,
				13,
				14,
				15,
				16,
				17,
				18,
				19,
				20,
				21,
				22,
				23
			],
			"name":"Beams"
		},
		{
			"mesh":23,
			"name":"Window",
			"scale":[
				1,
				1.0000028610229492,
				1
			],
			"translation":[
				-2.0760815143585205,
				1.4146356582641602,
				-1.221684455871582
			]
		},
		{
			"mesh":24,
			"name":"Window_02",
			"rotation":[
				0,
				0.7071067094802856,
				0,
				0.7071068286895752
			],
			"scale":[
				1,
				1.0000028610229492,
				1
			],
			"translation":[
				0.44010433554649353,
				1.4024083614349365,
				2.5672731399536133
			]
		},
		{
			"children":[
				25,
				26
			],
			"name":"Door_Window"
		},
		{
			"mesh":25,
			"name":"Door",
			"translation":[
				-2.0713937282562256,
				0.10098326206207275,
				0.02606017142534256
			]
		},
		{
			"mesh":26,
			"name":"Door_frame",
			"translation":[
				-2.0713937282562256,
				0,
				0.02606017142534256
			]
		},
		{
			"mesh":27,
			"name":"Door_handle",
			"rotation":[
				0,
				0,
				-0.7071068286895752,
				0.7071068286895752
			],
			"translation":[
				-1.967190146446228,
				1.1113334894180298,
				-0.36521023511886597
			]
		},
		{
			"children":[
				28,
				29,
				30
			],
			"name":"Door_full"
		},
		{
			"mesh":28,
			"name":"Shelf",
			"translation":[
				-1.6094889640808105,
				0.3587976396083832,
				1.5879385471343994
			]
		},
		{
			"mesh":28,
			"name":"Shelf.001",
			"rotation":[
				0,
				-1,
				0,
				1.9470718370939721e-07
			],
			"translation":[
				-1.6094889640808105,
				0.7617174386978149,
				1.5879385471343994
			]
		},
		{
			"mesh":28,
			"name":"Shelf.002",
			"translation":[
				-1.6094889640808105,
				1.1745654344558716,
				1.5879385471343994
			]
		},
		{
			"mesh":28,
			"name":"Shelf.003",
			"rotation":[
				0,
				-1,
				0,
				1.9470718370939721e-07
			],
			"translation":[
				-1.6094889640808105,
				1.5774853229522705,
				1.5879385471343994
			]
		},
		{
			"children":[
				32,
				33,
				34,
				35
			],
			"name":"Shelf_full"
		}
	],
	"materials":[
		{
			"doubleSided":true,
			"name":"Room_Mat",
			"pbrMetallicRoughness":{
				"baseColorFactor":[
					0.19687986373901367,
					0.19687986373901367,
					0.19687986373901367,
					1
				],
				"metallicFactor":0,
				"roughnessFactor":0.5
			}
		},
		{
			"doubleSided":true,
			"name":"Counter_Mat",
			"pbrMetallicRoughness":{
				"baseColorFactor":[
					0.175292506814003,
					0.175292506814003,
					0.175292506814003,
					1
				],
				"metallicFactor":0,
				"roughnessFactor":0.5
			}
		},
		{
			"doubleSided":true,
			"name":"Desk_mat",
			"pbrMetallicRoughness":{
				"baseColorFactor":[
					0.07198900729417801,
					0.07198900729417801,
					0.07198900729417801,
					1
				],
				"metallicFactor":0,
				"roughnessFactor":0.5
			}
		},
		{
			"doubleSided":true,
			"name":"Beam_Mat",
			"pbrMetallicRoughness":{
				"baseColorFactor":[
					0.1149912178516388,
					0.1149912178516388,
					0.1149912178516388,
					1
				],
				"metallicFactor":0,
				"roughnessFactor":0.5
			}
		},
		{
			"doubleSided":true,
			"name":"Window_Mat",
			"pbrMetallicRoughness":{
				"baseColorFactor":[
					0.08502701669931412,
					0.08502701669931412,
					0.08502701669931412,
					1
				],
				"metallicFactor":0,
				"roughnessFactor":0.5
			}
		},
		{
			"doubleSided":true,
			"name":"Shelf",
			"pbrMetallicRoughness":{
				"baseColorFactor":[
					0.0719887837767601,
					0.0719887837767601,
					0.0719887837767601,
					1
				],
				"metallicFactor":0,
				"roughnessFactor":0.5
			}
		}
	],
	"meshes":[
		{
			"name":"Room_obj",
			"primitives":[
				{
					"attributes":{
						"POSITION":0,
						"NORMAL":1,
						"TEXCOORD_0":2
					},
					"indices":3,
					"material":0
				}
			]
		},
		{
			"name":"Counter_obj",
			"primitives":[
				{
					"attributes":{
						"POSITION":4,
						"NORMAL":5,
						"TEXCOORD_0":6
					},
					"indices":7,
					"material":1
				}
			]
		},
		{
			"name":"Desk_Plate_obj",
			"primitives":[
				{
					"attributes":{
						"POSITION":8,
						"NORMAL":9,
						"TEXCOORD_0":10
					},
					"indices":11,
					"material":2
				}
			]
		},
		{
			"name":"Desk_Stand_01_obj",
			"primitives":[
				{
					"attributes":{
						"POSITION":12,
						"NORMAL":13,
						"TEXCOORD_0":14
					},
					"indices":15,
					"material":2
				}
			]
		},
		{
			"name":"Desk_Stand_01_obj",
			"primitives":[
				{
					"attributes":{
						"POSITION":16,
						"NORMAL":17,
						"TEXCOORD_0":18
					},
					"indices":15,
					"material":2
				}
			]
		},
		{
			"name":"Desk_Stand_01_obj",
			"primitives":[
				{
					"attributes":{
						"POSITION":19,
						"NORMAL":20,
						"TEXCOORD_0":21
					},
					"indices":15,
					"material":2
				}
			]
		},
		{
			"name":"Desk_Stand_01_obj",
			"primitives":[
				{
					"attributes":{
						"POSITION":22,
						"NORMAL":23,
						"TEXCOORD_0":24
					},
					"indices":15,
					"material":2
				}
			]
		},
		{
			"name":"Desk_Stand_01_obj",
			"primitives":[
				{
					"attributes":{
						"POSITION":25,
						"NORMAL":26,
						"TEXCOORD_0":27
					},
					"indices":15,
					"material":2
				}
			]
		},
		{
			"name":"Desk_Stand_01_obj",
			"primitives":[
				{
					"attributes":{
						"POSITION":28,
						"NORMAL":29,
						"TEXCOORD_0":30
					},
					"indices":15,
					"material":2
				}
			]
		},
		{
			"name":"Big_beam_obj",
			"primitives":[
				{
					"attributes":{
						"POSITION":31,
						"NORMAL":32,
						"TEXCOORD_0":33
					},
					"indices":34,
					"material":3
				}
			]
		},
		{
			"name":"Big_beam_obj",
			"primitives":[
				{
					"attributes":{
						"POSITION":35,
						"NORMAL":36,
						"TEXCOORD_0":37
					},
					"indices":34,
					"material":3
				}
			]
		},
		{
			"name":"Big_beam_obj",
			"primitives":[
				{
					"attributes":{
						"POSITION":38,
						"NORMAL":39,
						"TEXCOORD_0":40
					},
					"indices":34,
					"material":3
				}
			]
		},
		{
			"name":"Big_beam_obj",
			"primitives":[
				{
					"attributes":{
						"POSITION":41,
						"NORMAL":42,
						"TEXCOORD_0":43
					},
					"indices":34,
					"material":3
				}
			]
		},
		{
			"name":"Big_beam_obj",
			"primitives":[
				{
					"attributes":{
						"POSITION":44,
						"NORMAL":45,
						"TEXCOORD_0":46
					},
					"indices":34,
					"material":3
				}
			]
		},
		{
			"name":"Big_beam_obj",
			"primitives":[
				{
					"attributes":{
						"POSITION":47,
						"NORMAL":48,
						"TEXCOORD_0":49
					},
					"indices":34,
					"material":3
				}
			]
		},
		{
			"name":"Smal_beam_obj",
			"primitives":[
				{
					"attributes":{
						"POSITION":50,
						"NORMAL":51,
						"TEXCOORD_0":52
					},
					"indices":53,
					"material":3
				}
			]
		},
		{
			"name":"Smal_beam_obj",
			"primitives":[
				{
					"attributes":{
						"POSITION":54,
						"NORMAL":55,
						"TEXCOORD_0":56
					},
					"indices":53,
					"material":3
				}
			]
		},
		{
			"name":"Smal_beam_obj",
			"primitives":[
				{
					"attributes":{
						"POSITION":57,
						"NORMAL":58,
						"TEXCOORD_0":59
					},
					"indices":53,
					"material":3
				}
			]
		},
		{
			"name":"Smal_beam_obj",
			"primitives":[
				{
					"attributes":{
						"POSITION":60,
						"NORMAL":61,
						"TEXCOORD_0":62
					},
					"indices":53,
					"material":3
				}
			]
		},
		{
			"name":"Smal_beam_obj",
			"primitives":[
				{
					"attributes":{
						"POSITION":63,
						"NORMAL":64,
						"TEXCOORD_0":65
					},
					"indices":53,
					"material":3
				}
			]
		},
		{
			"name":"Smal_beam_obj",
			"primitives":[
				{
					"attributes":{
						"POSITION":66,
						"NORMAL":67,
						"TEXCOORD_0":68
					},
					"indices":53,
					"material":3
				}
			]
		},
		{
			"name":"Smal_beam_obj",
			"primitives":[
				{
					"attributes":{
						"POSITION":69,
						"NORMAL":70,
						"TEXCOORD_0":71
					},
					"indices":53,
					"material":3
				}
			]
		},
		{
			"name":"Smal_beam_obj",
			"primitives":[
				{
					"attributes":{
						"POSITION":72,
						"NORMAL":73,
						"TEXCOORD_0":74
					},
					"indices":53,
					"material":3
				}
			]
		},
		{
			"name":"Window_obj",
			"primitives":[
				{
					"attributes":{
						"POSITION":75,
						"NORMAL":76,
						"TEXCOORD_0":77
					},
					"indices":78,
					"material":4
				}
			]
		},
		{
			"name":"Window_obj",
			"primitives":[
				{
					"attributes":{
						"POSITION":79,
						"NORMAL":80,
						"TEXCOORD_0":81
					},
					"indices":78,
					"material":4
				}
			]
		},
		{
			"name":"Door_obj",
			"primitives":[
				{
					"attributes":{
						"POSITION":82,
						"NORMAL":83,
						"TEXCOORD_0":84
					},
					"indices":85,
					"material":4
				}
			]
		},
		{
			"name":"Door_frame_obj",
			"primitives":[
				{
					"attributes":{
						"POSITION":86,
						"NORMAL":87,
						"TEXCOORD_0":88
					},
					"indices":89,
					"material":4
				}
			]
		},
		{
			"name":"Door_handle_obj",
			"primitives":[
				{
					"attributes":{
						"POSITION":90,
						"NORMAL":91,
						"TEXCOORD_0":92
					},
					"indices":93,
					"material":4
				}
			]
		},
		{
			"name":"Shelf_obj",
			"primitives":[
				{
					"attributes":{
						"POSITION":94,
						"NORMAL":95,
						"TEXCOORD_0":96
					},
					"indices":97,
					"material":5
				}
			]
		}
	],
	"accessors":[
		{
			"bufferView":0,
			"componentType":5126,
			"count":124,
			"max":[
				3.719244956970215,
				3,
				2.701704263687134
			],
			"min":[
				-2.161363124847412,
				-0.12102234363555908,
				-2.701704263687134
			],
			"type":"VEC3"
		},
		{
			"bufferView":1,
			"componentType":5126,
			"count":124,
			"type":"VEC3"
		},
		{
			"bufferView":2,
			"componentType":5126,
			"count":124,
			"type":"VEC2"
		},
		{
			"bufferView":3,
			"componentType":5123,
			"count":264,
			"type":"SCALAR"
		},
		{
			"bufferView":4,
			"componentType":5126,
			"count":24,
			"max":[
				0.2634337246417999,
				0.03500000014901161,
				1
			],
			"min":[
				-0.3394620716571808,
				-0.03500000014901161,
				-1
			],
			"type":"VEC3"
		},
		{
			"bufferView":5,
			"componentType":5126,
			"count":24,
			"type":"VEC3"
		},
		{
			"bufferView":6,
			"componentType":5126,
			"count":24,
			"type":"VEC2"
		},
		{
			"bufferView":7,
			"componentType":5123,
			"count":36,
			"type":"SCALAR"
		},
		{
			"bufferView":8,
			"componentType":5126,
			"count":121,
			"max":[
				0.48168429732322693,
				0.03500000014901161,
				1
			],
			"min":[
				-0.48168429732322693,
				-0.03500000014901161,
				-1
			],
			"type":"VEC3"
		},
		{
			"bufferView":9,
			"componentType":5126,
			"count":121,
			"type":"VEC3"
		},
		{
			"bufferView":10,
			"componentType":5126,
			"count":121,
			"type":"VEC2"
		},
		{
			"bufferView":11,
			"componentType":5123,
			"count":228,
			"type":"SCALAR"
		},
		{
			"bufferView":12,
			"componentType":5126,
			"count":72,
			"max":[
				0.0520901195704937,
				1.029471755027771,
				0.0520901195704937
			],
			"min":[
				-0.0520901195704937,
				0,
				-0.0520901195704937
			],
			"type":"VEC3"
		},
		{
			"bufferView":13,
			"componentType":5126,
			"count":72,
			"type":"VEC3"
		},
		{
			"bufferView":14,
			"componentType":5126,
			"count":72,
			"type":"VEC2"
		},
		{
			"bufferView":15,
			"componentType":5123,
			"count":144,
			"type":"SCALAR"
		},
		{
			"bufferView":16,
			"componentType":5126,
			"count":72,
			"max":[
				0.0520901195704937,
				1.029471755027771,
				0.0520901195704937
			],
			"min":[
				-0.0520901195704937,
				0,
				-0.0520901195704937
			],
			"type":"VEC3"
		},
		{
			"bufferView":17,
			"componentType":5126,
			"count":72,
			"type":"VEC3"
		},
		{
			"bufferView":18,
			"componentType":5126,
			"count":72,
			"type":"VEC2"
		},
		{
			"bufferView":19,
			"componentType":5126,
			"count":72,
			"max":[
				0.0520901195704937,
				1.029471755027771,
				0.0520901195704937
			],
			"min":[
				-0.0520901195704937,
				0,
				-0.0520901195704937
			],
			"type":"VEC3"
		},
		{
			"bufferView":20,
			"componentType":5126,
			"count":72,
			"type":"VEC3"
		},
		{
			"bufferView":21,
			"componentType":5126,
			"count":72,
			"type":"VEC2"
		},
		{
			"bufferView":22,
			"componentType":5126,
			"count":72,
			"max":[
				0.0520901195704937,
				1.029471755027771,
				0.0520901195704937
			],
			"min":[
				-0.0520901195704937,
				0,
				-0.0520901195704937
			],
			"type":"VEC3"
		},
		{
			"bufferView":23,
			"componentType":5126,
			"count":72,
			"type":"VEC3"
		},
		{
			"bufferView":24,
			"componentType":5126,
			"count":72,
			"type":"VEC2"
		},
		{
			"bufferView":25,
			"componentType":5126,
			"count":72,
			"max":[
				0.0520901195704937,
				1.029471755027771,
				0.0520901195704937
			],
			"min":[
				-0.0520901195704937,
				0,
				-0.0520901195704937
			],
			"type":"VEC3"
		},
		{
			"bufferView":26,
			"componentType":5126,
			"count":72,
			"type":"VEC3"
		},
		{
			"bufferView":27,
			"componentType":5126,
			"count":72,
			"type":"VEC2"
		},
		{
			"bufferView":28,
			"componentType":5126,
			"count":72,
			"max":[
				0.0520901195704937,
				1.029471755027771,
				0.0520901195704937
			],
			"min":[
				-0.0520901195704937,
				0,
				-0.0520901195704937
			],
			"type":"VEC3"
		},
		{
			"bufferView":29,
			"componentType":5126,
			"count":72,
			"type":"VEC3"
		},
		{
			"bufferView":30,
			"componentType":5126,
			"count":72,
			"type":"VEC2"
		},
		{
			"bufferView":31,
			"componentType":5126,
			"count":184,
			"max":[
				0.2484426498413086,
				3,
				0.2484426498413086
			],
			"min":[
				-0.2484426498413086,
				0,
				-0.2484426498413086
			],
			"type":"VEC3"
		},
		{
			"bufferView":32,
			"componentType":5126,
			"count":184,
			"type":"VEC3"
		},
		{
			"bufferView":33,
			"componentType":5126,
			"count":184,
			"type":"VEC2"
		},
		{
			"bufferView":34,
			"componentType":5123,
			"count":408,
			"type":"SCALAR"
		},
		{
			"bufferView":35,
			"componentType":5126,
			"count":184,
			"max":[
				0.2484426498413086,
				3,
				0.2484426498413086
			],
			"min":[
				-0.2484426498413086,
				0,
				-0.2484426498413086
			],
			"type":"VEC3"
		},
		{
			"bufferView":36,
			"componentType":5126,
			"count":184,
			"type":"VEC3"
		},
		{
			"bufferView":37,
			"componentType":5126,
			"count":184,
			"type":"VEC2"
		},
		{
			"bufferView":38,
			"componentType":5126,
			"count":184,
			"max":[
				0.2484426498413086,
				3,
				0.2484426498413086
			],
			"min":[
				-0.2484426498413086,
				0,
				-0.2484426498413086
			],
			"type":"VEC3"
		},
		{
			"bufferView":39,
			"componentType":5126,
			"count":184,
			"type":"VEC3"
		},
		{
			"bufferView":40,
			"componentType":5126,
			"count":184,
			"type":"VEC2"
		},
		{
			"bufferView":41,
			"componentType":5126,
			"count":184,
			"max":[
				0.2484426498413086,
				3,
				0.2484426498413086
			],
			"min":[
				-0.2484426498413086,
				0,
				-0.2484426498413086
			],
			"type":"VEC3"
		},
		{
			"bufferView":42,
			"componentType":5126,
			"count":184,
			"type":"VEC3"
		},
		{
			"bufferView":43,
			"componentType":5126,
			"count":184,
			"type":"VEC2"
		},
		{
			"bufferView":44,
			"componentType":5126,
			"count":184,
			"max":[
				0.2484426498413086,
				3,
				0.2484426498413086
			],
			"min":[
				-0.2484426498413086,
				0,
				-0.2484426498413086
			],
			"type":"VEC3"
		},
		{
			"bufferView":45,
			"componentType":5126,
			"count":184,
			"type":"VEC3"
		},
		{
			"bufferView":46,
			"componentType":5126,
			"count":184,
			"type":"VEC2"
		},
		{
			"bufferView":47,
			"componentType":5126,
			"count":184,
			"max":[
				0.2484426498413086,
				3,
				0.2484426498413086
			],
			"min":[
				-0.2484426498413086,
				0,
				-0.2484426498413086
			],
			"type":"VEC3"
		},
		{
			"bufferView":48,
			"componentType":5126,
			"count":184,
			"type":"VEC3"
		},
		{
			"bufferView":49,
			"componentType":5126,
			"count":184,
			"type":"VEC2"
		},
		{
			"bufferView":50,
			"componentType":5126,
			"count":168,
			"max":[
				0.2484426498413086,
				1.200894832611084,
				0.2484426498413086
			],
			"min":[
				-0.2484426498413086,
				0,
				-0.2484426498413086
			],
			"type":"VEC3"
		},
		{
			"bufferView":51,
			"componentType":5126,
			"count":168,
			"type":"VEC3"
		},
		{
			"bufferView":52,
			"componentType":5126,
			"count":168,
			"type":"VEC2"
		},
		{
			"bufferView":53,
			"componentType":5123,
			"count":360,
			"type":"SCALAR"
		},
		{
			"bufferView":54,
			"componentType":5126,
			"count":168,
			"max":[
				0.2484426498413086,
				1.200894832611084,
				0.2484426498413086
			],
			"min":[
				-0.2484426498413086,
				0,
				-0.2484426498413086
			],
			"type":"VEC3"
		},
		{
			"bufferView":55,
			"componentType":5126,
			"count":168,
			"type":"VEC3"
		},
		{
			"bufferView":56,
			"componentType":5126,
			"count":168,
			"type":"VEC2"
		},
		{
			"bufferView":57,
			"componentType":5126,
			"count":168,
			"max":[
				0.2484426498413086,
				1.200894832611084,
				0.2484426498413086
			],
			"min":[
				-0.2484426498413086,
				0,
				-0.2484426498413086
			],
			"type":"VEC3"
		},
		{
			"bufferView":58,
			"componentType":5126,
			"count":168,
			"type":"VEC3"
		},
		{
			"bufferView":59,
			"componentType":5126,
			"count":168,
			"type":"VEC2"
		},
		{
			"bufferView":60,
			"componentType":5126,
			"count":168,
			"max":[
				0.2484426498413086,
				1.200894832611084,
				0.2484426498413086
			],
			"min":[
				-0.2484426498413086,
				0,
				-0.2484426498413086
			],
			"type":"VEC3"
		},
		{
			"bufferView":61,
			"componentType":5126,
			"count":168,
			"type":"VEC3"
		},
		{
			"bufferView":62,
			"componentType":5126,
			"count":168,
			"type":"VEC2"
		},
		{
			"bufferView":63,
			"componentType":5126,
			"count":168,
			"max":[
				0.2484426498413086,
				1.200894832611084,
				0.2484426498413086
			],
			"min":[
				-0.2484426498413086,
				0,
				-0.2484426498413086
			],
			"type":"VEC3"
		},
		{
			"bufferView":64,
			"componentType":5126,
			"count":168,
			"type":"VEC3"
		},
		{
			"bufferView":65,
			"componentType":5126,
			"count":168,
			"type":"VEC2"
		},
		{
			"bufferView":66,
			"componentType":5126,
			"count":168,
			"max":[
				0.2484426498413086,
				1.200894832611084,
				0.2484426498413086
			],
			"min":[
				-0.2484426498413086,
				0,
				-0.2484426498413086
			],
			"type":"VEC3"
		},
		{
			"bufferView":67,
			"componentType":5126,
			"count":168,
			"type":"VEC3"
		},
		{
			"bufferView":68,
			"componentType":5126,
			"count":168,
			"type":"VEC2"
		},
		{
			"bufferView":69,
			"componentType":5126,
			"count":168,
			"max":[
				0.2484426498413086,
				1.200894832611084,
				0.2484426498413086
			],
			"min":[
				-0.2484426498413086,
				0,
				-0.2484426498413086
			],
			"type":"VEC3"
		},
		{
			"bufferView":70,
			"componentType":5126,
			"count":168,
			"type":"VEC3"
		},
		{
			"bufferView":71,
			"componentType":5126,
			"count":168,
			"type":"VEC2"
		},
		{
			"bufferView":72,
			"componentType":5126,
			"count":168,
			"max":[
				0.2484426498413086,
				1.200894832611084,
				0.2484426498413086
			],
			"min":[
				-0.2484426498413086,
				0,
				-0.2484426498413086
			],
			"type":"VEC3"
		},
		{
			"bufferView":73,
			"componentType":5126,
			"count":168,
			"type":"VEC3"
		},
		{
			"bufferView":74,
			"componentType":5126,
			"count":168,
			"type":"VEC2"
		},
		{
			"bufferView":75,
			"componentType":5126,
			"count":297,
			"max":[
				0.3735618591308594,
				0.6905980110168457,
				0.0528910756111145
			],
			"min":[
				-0.10913413017988205,
				-0.6905979514122009,
				-0.9471550583839417
			],
			"type":"VEC3"
		},
		{
			"bufferView":76,
			"componentType":5126,
			"count":297,
			"type":"VEC3"
		},
		{
			"bufferView":77,
			"componentType":5126,
			"count":297,
			"type":"VEC2"
		},
		{
			"bufferView":78,
			"componentType":5123,
			"count":648,
			"type":"SCALAR"
		},
		{
			"bufferView":79,
			"componentType":5126,
			"count":297,
			"max":[
				0.3735618591308594,
				0.6905980110168457,
				0.0528910756111145
			],
			"min":[
				-0.10913413017988205,
				-0.6905979514122009,
				-0.9471550583839417
			],
			"type":"VEC3"
		},
		{
			"bufferView":80,
			"componentType":5126,
			"count":297,
			"type":"VEC3"
		},
		{
			"bufferView":81,
			"componentType":5126,
			"count":297,
			"type":"VEC2"
		},
		{
			"bufferView":82,
			"componentType":5126,
			"count":322,
			"max":[
				0.04133103787899017,
				1.933219313621521,
				0.537186324596405
			],
			"min":[
				-0.04133103787899017,
				0,
				-0.537186324596405
			],
			"type":"VEC3"
		},
		{
			"bufferView":83,
			"componentType":5126,
			"count":322,
			"type":"VEC3"
		},
		{
			"bufferView":84,
			"componentType":5126,
			"count":322,
			"type":"VEC2"
		},
		{
			"bufferView":85,
			"componentType":5123,
			"count":534,
			"type":"SCALAR"
		},
		{
			"bufferView":86,
			"componentType":5126,
			"count":154,
			"max":[
				0.10948496311903,
				2.125971555709839,
				0.622636616230011
			],
			"min":[
				-0.10948496311903,
				0,
				-0.622636616230011
			],
			"type":"VEC3"
		},
		{
			"bufferView":87,
			"componentType":5126,
			"count":154,
			"type":"VEC3"
		},
		{
			"bufferView":88,
			"componentType":5126,
			"count":154,
			"type":"VEC2"
		},
		{
			"bufferView":89,
			"componentType":5123,
			"count":306,
			"type":"SCALAR"
		},
		{
			"bufferView":90,
			"componentType":5126,
			"count":168,
			"max":[
				0.06470043957233429,
				0.06470044702291489,
				0.06470043957233429
			],
			"min":[
				-0.06470043957233429,
				-0.07245857268571854,
				-0.06470044702291489
			],
			"type":"VEC3"
		},
		{
			"bufferView":91,
			"componentType":5126,
			"count":168,
			"type":"VEC3"
		},
		{
			"bufferView":92,
			"componentType":5126,
			"count":168,
			"type":"VEC2"
		},
		{
			"bufferView":93,
			"componentType":5123,
			"count":264,
			"type":"SCALAR"
		},
		{
			"bufferView":94,
			"componentType":5126,
			"count":257,
			"max":[
				0.2839958667755127,
				0.060510408133268356,
				0.8309592008590698
			],
			"min":[
				-0.2839958667755127,
				-0.370836466550827,
				-0.8309592008590698
			],
			"type":"VEC3"
		},
		{
			"bufferView":95,
			"componentType":5126,
			"count":257,
			"type":"VEC3"
		},
		{
			"bufferView":96,
			"componentType":5126,
			"count":257,
			"type":"VEC2"
		},
		{
			"bufferView":97,
			"componentType":5123,
			"count":636,
			"type":"SCALAR"
		}
	],
	"bufferViews":[
		{
			"buffer":0,
			"byteLength":1488,
			"byteOffset":0,
			"target":34962
		},
		{
			"buffer":0,
			"byteLength":1488,
			"byteOffset":1488,
			"target":34962
		},
		{
			"buffer":0,
			"byteLength":992,
			"byteOffset":2976,
			"target":34962
		},
		{
			"buffer":0,
			"byteLength":528,
			"byteOffset":3968,
			"target":34963
		},
		{
			"buffer":0,
			"byteLength":288,
			"byteOffset":4496,
			"target":34962
		},
		{
			"buffer":0,
			"byteLength":288,
			"byteOffset":4784,
			"target":34962
		},
		{
			"buffer":0,
			"byteLength":192,
			"byteOffset":5072,
			"target":34962
		},
		{
			"buffer":0,
			"byteLength":72,
			"byteOffset":5264,
			"target":34963
		},
		{
			"buffer":0,
			"byteLength":1452,
			"byteOffset":5336,
			"target":34962
		},
		{
			"buffer":0,
			"byteLength":1452,
			"byteOffset":6788,
			"target":34962
		},
		{
			"buffer":0,
			"byteLength":968,
			"byteOffset":8240,
			"target":34962
		},
		{
			"buffer":0,
			"byteLength":456,
			"byteOffset":9208,
			"target":34963
		},
		{
			"buffer":0,
			"byteLength":864,
			"byteOffset":9664,
			"target":34962
		},
		{
			"buffer":0,
			"byteLength":864,
			"byteOffset":10528,
			"target":34962
		},
		{
			"buffer":0,
			"byteLength":576,
			"byteOffset":11392,
			"target":34962
		},
		{
			"buffer":0,
			"byteLength":288,
			"byteOffset":11968,
			"target":34963
		},
		{
			"buffer":0,
			"byteLength":864,
			"byteOffset":12256,
			"target":34962
		},
		{
			"buffer":0,
			"byteLength":864,
			"byteOffset":13120,
			"target":34962
		},
		{
			"buffer":0,
			"byteLength":576,
			"byteOffset":13984,
			"target":34962
		},
		{
			"buffer":0,
			"byteLength":864,
			"byteOffset":14560,
			"target":34962
		},
		{
			"buffer":0,
			"byteLength":864,
			"byteOffset":15424,
			"target":34962
		},
		{
			"buffer":0,
			"byteLength":576,
			"byteOffset":16288,
			"target":34962
		},
		{
			"buffer":0,
			"byteLength":864,
			"byteOffset":16864,
			"target":34962
		},
		{
			"buffer":0,
			"byteLength":864,
			"byteOffset":17728,
			"target":34962
		},
		{
			"buffer":0,
			"byteLength":576,
			"byteOffset":18592,
			"target":34962
		},
		{
			"buffer":0,
			"byteLength":864,
			"byteOffset":19168,
			"target":34962
		},
		{
			"buffer":0,
			"byteLength":864,
			"byteOffset":20032,
			"target":34962
		},
		{
			"buffer":0,
			"byteLength":576,
			"byteOffset":20896,
			"target":34962
		},
		{
			"buffer":0,
			"byteLength":864,
			"byteOffset":21472,
			"target":34962
		},
		{
			"buffer":0,
			"byteLength":864,
			"byteOffset":22336,
			"target":34962
		},
		{
			"buffer":0,
			"byteLength":576,
			"byteOffset":23200,
			"target":34962
		},
		{
			"buffer":0,
			"byteLength":2208,
			"byteOffset":23776,
			"target":34962
		},
		{
			"buffer":0,
			"byteLength":2208,
			"byteOffset":25984,
			"target":34962
		},
		{
			"buffer":0,
			"byteLength":1472,
			"byteOffset":28192,
			"target":34962
		},
		{
			"buffer":0,
			"byteLength":816,
			"byteOffset":29664,
			"target":34963
		},
		{
			"buffer":0,
			"byteLength":2208,
			"byteOffset":30480,
			"target":34962
		},
		{
			"buffer":0,
			"byteLength":2208,
			"byteOffset":32688,
			"target":34962
		},
		{
			"buffer":0,
			"byteLength":1472,
			"byteOffset":34896,
			"target":34962
		},
		{
			"buffer":0,
			"byteLength":2208,
			"byteOffset":36368,
			"target":34962
		},
		{
			"buffer":0,
			"byteLength":2208,
			"byteOffset":38576,
			"target":34962
		},
		{
			"buffer":0,
			"byteLength":1472,
			"byteOffset":40784,
			"target":34962
		},
		{
			"buffer":0,
			"byteLength":2208,
			"byteOffset":42256,
			"target":34962
		},
		{
			"buffer":0,
			"byteLength":2208,
			"byteOffset":44464,
			"target":34962
		},
		{
			"buffer":0,
			"byteLength":1472,
			"byteOffset":46672,
			"target":34962
		},
		{
			"buffer":0,
			"byteLength":2208,
			"byteOffset":48144,
			"target":34962
		},
		{
			"buffer":0,
			"byteLength":2208,
			"byteOffset":50352,
			"target":34962
		},
		{
			"buffer":0,
			"byteLength":1472,
			"byteOffset":52560,
			"target":34962
		},
		{
			"buffer":0,
			"byteLength":2208,
			"byteOffset":54032,
			"target":34962
		},
		{
			"buffer":0,
			"byteLength":2208,
			"byteOffset":56240,
			"target":34962
		},
		{
			"buffer":0,
			"byteLength":1472,
			"byteOffset":58448,
			"target":34962
		},
		{
			"buffer":0,
			"byteLength":2016,
			"byteOffset":59920,
			"target":34962
		},
		{
			"buffer":0,
			"byteLength":2016,
			"byteOffset":61936,
			"target":34962
		},
		{
			"buffer":0,
			"byteLength":1344,
			"byteOffset":63952,
			"target":34962
		},
		{
			"buffer":0,
			"byteLength":720,
			"byteOffset":65296,
			"target":34963
		},
		{
			"buffer":0,
			"byteLength":2016,
			"byteOffset":66016,
			"target":34962
		},
		{
			"buffer":0,
			"byteLength":2016,
			"byteOffset":68032,
			"target":34962
		},
		{
			"buffer":0,
			"byteLength":1344,
			"byteOffset":70048,
			"target":34962
		},
		{
			"buffer":0,
			"byteLength":2016,
			"byteOffset":71392,
			"target":34962
		},
		{
			"buffer":0,
			"byteLength":2016,
			"byteOffset":73408,
			"target":34962
		},
		{
			"buffer":0,
			"byteLength":1344,
			"byteOffset":75424,
			"target":34962
		},
		{
			"buffer":0,
			"byteLength":2016,
			"byteOffset":76768,
			"target":34962
		},
		{
			"buffer":0,
			"byteLength":2016,
			"byteOffset":78784,
			"target":34962
		},
		{
			"buffer":0,
			"byteLength":1344,
			"byteOffset":80800,
			"target":34962
		},
		{
			"buffer":0,
			"byteLength":2016,
			"byteOffset":82144,
			"target":34962
		},
		{
			"buffer":0,
			"byteLength":2016,
			"byteOffset":84160,
			"target":34962
		},
		{
			"buffer":0,
			"byteLength":1344,
			"byteOffset":86176,
			"target":34962
		},
		{
			"buffer":0,
			"byteLength":2016,
			"byteOffset":87520,
			"target":34962
		},
		{
			"buffer":0,
			"byteLength":2016,
			"byteOffset":89536,
			"target":34962
		},
		{
			"buffer":0,
			"byteLength":1344,
			"byteOffset":91552,
			"target":34962
		},
		{
			"buffer":0,
			"byteLength":2016,
			"byteOffset":92896,
			"target":34962
		},
		{
			"buffer":0,
			"byteLength":2016,
			"byteOffset":94912,
			"target":34962
		},
		{
			"buffer":0,
			"byteLength":1344,
			"byteOffset":96928,
			"target":34962
		},
		{
			"buffer":0,
			"byteLength":2016,
			"byteOffset":98272,
			"target":34962
		},
		{
			"buffer":0,
			"byteLength":2016,
			"byteOffset":100288,
			"target":34962
		},
		{
			"buffer":0,
			"byteLength":1344,
			"byteOffset":102304,
			"target":34962
		},
		{
			"buffer":0,
			"byteLength":3564,
			"byteOffset":103648,
			"target":34962
		},
		{
			"buffer":0,
			"byteLength":3564,
			"byteOffset":107212,
			"target":34962
		},
		{
			"buffer":0,
			"byteLength":2376,
			"byteOffset":110776,
			"target":34962
		},
		{
			"buffer":0,
			"byteLength":1296,
			"byteOffset":113152,
			"target":34963
		},
		{
			"buffer":0,
			"byteLength":3564,
			"byteOffset":114448,
			"target":34962
		},
		{
			"buffer":0,
			"byteLength":3564,
			"byteOffset":118012,
			"target":34962
		},
		{
			"buffer":0,
			"byteLength":2376,
			"byteOffset":121576,
			"target":34962
		},
		{
			"buffer":0,
			"byteLength":3864,
			"byteOffset":123952,
			"target":34962
		},
		{
			"buffer":0,
			"byteLength":3864,
			"byteOffset":127816,
			"target":34962
		},
		{
			"buffer":0,
			"byteLength":2576,
			"byteOffset":131680,
			"target":34962
		},
		{
			"buffer":0,
			"byteLength":1068,
			"byteOffset":134256,
			"target":34963
		},
		{
			"buffer":0,
			"byteLength":1848,
			"byteOffset":135324,
			"target":34962
		},
		{
			"buffer":0,
			"byteLength":1848,
			"byteOffset":137172,
			"target":34962
		},
		{
			"buffer":0,
			"byteLength":1232,
			"byteOffset":139020,
			"target":34962
		},
		{
			"buffer":0,
			"byteLength":612,
			"byteOffset":140252,
			"target":34963
		},
		{
			"buffer":0,
			"byteLength":2016,
			"byteOffset":140864,
			"target":34962
		},
		{
			"buffer":0,
			"byteLength":2016,
			"byteOffset":142880,
			"target":34962
		},
		{
			"buffer":0,
			"byteLength":1344,
			"byteOffset":144896,
			"target":34962
		},
		{
			"buffer":0,
			"byteLength":528,
			"byteOffset":146240,
			"target":34963
		},
		{
			"buffer":0,
			"byteLength":3084,
			"byteOffset":146768,
			"target":34962
		},
		{
			"buffer":0,
			"byteLength":3084,
			"byteOffset":149852,
			"target":34962
		},
		{
			"buffer":0,
			"byteLength":2056,
			"byteOffset":152936,
			"target":34962
		},
		{
			"buffer":0,
			"byteLength":1272,
			"byteOffset":154992,
			"target":34963
		}
	],
	"buffers":[
		{
			"byteLength":156264,
			"uri":"Room.bin"
		}
	]
}
