{
	"asset":{
		"generator":"Khronos glTF Blender I/O v5.0.21",
		"version":"2.0"
	},
	"scene":0,
	"scenes":[
		{
			"name":"Lamp",
			"nodes":[
				2
			]
		}
	],
	"nodes":[
		{
			"mesh":0,
			"name":"Lamp",
			"rotation":[
				-0.7071067690849304,
				0,
				0,
				0.7071068286895752
			],
			"scale":[
				0.029861990362405777,
				0.029861990362405777,
				0.029861990362405777
			],
			"translation":[
				0.0027097463607788086,
				0.30495327711105347,
				-0.13085173070430756
			]
		},
		{
			"mesh":1,
			"name":"Lamp_cable",
			"rotation":[
				-0.7071067690849304,
				0,
				0,
				0.7071068286895752
			],
			"scale":[
				0.029861990362405777,
				0.029861990362405777,
				0.029861990362405777
			],
			"translation":[
				0.0027097463607788086,
				0.30495327711105347,
				-0.13085173070430756
			]
		},
		{
			"children":[
				0,
				1
			],
			"name":"lamp_full"
		}
	],
	"meshes":[
		{
			"name":"Lamp_obj",
			"primitives":[
				{
					"attributes":{
						"POSITION":0,
						"NORMAL":1,
						"TEXCOORD_0":2
					},
					"indices":3
				}
			]
		},
		{
			"name":"Lamp_cable_obj",
			"primitives":[
				{
					"attributes":{
						"POSITION":4,
						"NORMAL":5,
						"TEXCOORD_0":6
					},
					"indices":7
				}
			]
		}
	],
	"accessors":[
		{
			"bufferView":0,
			"componentType":5126,
			"count":98,
			"max":[
				0.9999999403953552,
				1.6524333953857422,
				0.9999998807907104
			],
			"min":[
				-0.9999998807907104,
				-1,
				-1
			],
			"type":"VEC3"
		},
		{
			"bufferView":1,
			"componentType":5126,
			"count":98,
			"type":"VEC3"
		},
		{
			"bufferView":2,
			"componentType":5126,
			"count":98,
			"type":"VEC2"
		},
		{
			"bufferView":3,
			"componentType":5123,
			"count":456,
			"type":"SCALAR"
		},
		{
			"bufferView":4,
			"componentType":5126,
			"count":72,
			"max":[
				0.2585945129394531,
				7.310978889465332,
				0.258594274520874
			],
			"min":[
				-0.2585945129394531,
				1.6524333953857422,
				-10.549277305603027
			],
			"type":"VEC3"
		},
		{
			"bufferView":5,
			"componentType":5126,
			"count":72,
			"type":"VEC3"
		},
		{
			"bufferView":6,
			"componentType":5126,
			"count":72,
			"type":"VEC2"
		},
		{
			"bufferView":7,
			"componentType":5123,
			"count":336,
			"type":"SCALAR"
		}
	],
	"bufferViews":[
		{
			"buffer":0,
			"byteLength":1176,
			"byteOffset":0,
			"target":34962
		},
		{
			"buffer":0,
			"byteLength":1176,
			"byteOffset":1176,
			"target":34962
		},
		{
			"buffer":0,
			"byteLength":784,
			"byteOffset":2352,
			"target":34962
		},
		{
			"buffer":0,
			"byteLength":912,
			"byteOffset":3136,
			"target":34963
		},
		{
			"buffer":0,
			"byteLength":864,
			"byteOffset":4048,
			"target":34962
		},
		{
			"buffer":0,
			"byteLength":864,
			"byteOffset":4912,
			"target":34962
		},
		{
			"buffer":0,
			"byteLength":576,
			"byteOffset":5776,
			"target":34962
		},
		{
			"buffer":0,
			"byteLength":672,
			"byteOffset":6352,
			"target":34963
		}
	],
	"buffers":[
		{
			"byteLength":7024,
			"uri":"Lamp.bin"
		}
	]
}
